HIERARCHY
ROOT joint_Root
{
	OFFSET 0.0 0.0 0.0
	CHANNELS 6 Xposition Yposition Zposition Zrotation Xrotation Yrotation 
	JOINT Hips
	{
		OFFSET 4.5925 91.4895 -427.239
		CHANNELS 6 Xposition Yposition Zposition Zrotation Xrotation Yrotation 
		JOINT Spine
		{
			OFFSET 15.7357 0.0 0.0
			CHANNELS 6 Xposition Yposition Zposition Zrotation Xrotation Yrotation 
			JOINT Chest
			{
				OFFSET 8.98455 -0.406207 0.0
				CHANNELS 6 Xposition Yposition Zposition Zrotation Xrotation Yrotation 
				JOINT Neck
				{
					OFFSET 16.3773 0.0 0.0
					CHANNELS 6 Xposition Yposition Zposition Zrotation Xrotation Yrotation 
					JOINT Head
					{
						OFFSET 6.45672 0.0 0.0
						CHANNELS 6 Xposition Yposition Zposition Zrotation Xrotation Yrotation 
						End Site
						{
							OFFSET 0.0 0.0 0.0
						}
					}
				}
				JOINT Shoulder_L
				{
					OFFSET 12.9942 -0.242716 4.98039
					CHANNELS 6 Xposition Yposition Zposition Zrotation Xrotation Yrotation 
					JOINT UpperArm_L
					{
						OFFSET 5.34809 0.0 0.0
						CHANNELS 6 Xposition Yposition Zposition Zrotation Xrotation Yrotation 
						JOINT LowerArm_L
						{
							OFFSET 24.3286 1.87007e-05 0.0
							CHANNELS 6 Xposition Yposition Zposition Zrotation Xrotation Yrotation 
							JOINT Hand_L
							{
								OFFSET 22.2916 0.0 0.0
								CHANNELS 6 Xposition Yposition Zposition Zrotation Xrotation Yrotation 
								End Site
								{
									OFFSET 0.0 0.0 0.0
								}
							}
						}
					}
				}
				JOINT Shoulder_R
				{
					OFFSET 12.9945 -0.242716 -4.98039
					CHANNELS 6 Xposition Yposition Zposition Zrotation Xrotation Yrotation 
					JOINT UpperArm_R
					{
						OFFSET -5.34813 0.0 0.0
						CHANNELS 6 Xposition Yposition Zposition Zrotation Xrotation Yrotation 
						JOINT LowerArm_R
						{
							OFFSET -24.3289 0.000322201 0.0
							CHANNELS 6 Xposition Yposition Zposition Zrotation Xrotation Yrotation 
							JOINT Hand_R
							{
								OFFSET -22.2915 -0.000108084 0.0
								CHANNELS 6 Xposition Yposition Zposition Zrotation Xrotation Yrotation 
								End Site
								{
									OFFSET 0.0 0.0 0.0
								}
							}
						}
					}
				}
			}
		}
		JOINT UpperLeg_L
		{
			OFFSET -2.19248 -6.46944 0.0
			CHANNELS 6 Xposition Yposition Zposition Zrotation Xrotation Yrotation 
			JOINT LowerLeg_L
			{
				OFFSET 39.0811 0.0 -1.23785e-05
				CHANNELS 6 Xposition Yposition Zposition Zrotation Xrotation Yrotation 
				JOINT Foot_L
				{
					OFFSET 40.9854 0.0 -1.26872e-05
					CHANNELS 6 Xposition Yposition Zposition Zrotation Xrotation Yrotation 
					JOINT Toes_L
					{
						OFFSET 11.7543 0.0 0.0
						CHANNELS 6 Xposition Yposition Zposition Zrotation Xrotation Yrotation 
						End Site
						{
							OFFSET 0.0 0.0 0.0
						}
					}
				}
			}
		}
		JOINT UpperLeg_R
		{
			OFFSET -2.19251 6.46944 0.0
			CHANNELS 6 Xposition Yposition Zposition Zrotation Xrotation Yrotation 
			JOINT LowerLeg_R
			{
				OFFSET -39.0811 -0.00228153 -0.0401928
				CHANNELS 6 Xposition Yposition Zposition Zrotation Xrotation Yrotation 
				JOINT Foot_R
				{
					OFFSET -40.9854 0.0 0.0
					CHANNELS 6 Xposition Yposition Zposition Zrotation Xrotation Yrotation 
					JOINT Toes_R
					{
						OFFSET -11.7543 0.0 0.0
						CHANNELS 6 Xposition Yposition Zposition Zrotation Xrotation Yrotation 
						End Site
						{
							OFFSET 0.0 0.0 0.0
						}
					}
				}
			}
		}
	}
}
MOTION
Frames:	4
Frame Time:	0.0333333
0.000000 0.000000 0.000000 0.000000 0.000000 -0.000000 0.051418 82.988800 -2.825010 89.394200 -4.709200 10.065100 15.735700 0.000005 -0.000001 87.898500 80.971300 -86.384900 8.984550 -0.406207 -0.000000 10.289800 -0.624477 3.081410 16.377300 -0.000001 -0.000001 -2.181750 -3.746450 1.683950 6.456720 -0.000001 -0.000000 -2.396060 -3.286950 2.530810 12.994200 -0.242716 4.980390 -91.579700 5.718140 -74.527800 5.348090 -0.000007 -0.000001 -68.093200 18.501100 -9.686340 24.328600 0.000019 0.000005 15.790800 15.959700 -45.794200 22.291600 -0.000001 0.000005 10.848700 5.430360 -3.952170 12.994500 -0.242716 -4.980390 88.362300 8.789430 -79.401700 -5.348130 -0.000001 -0.000004 -56.787600 33.335700 -12.116300 -24.328900 0.000322 -0.000009 3.020540 5.187220 -30.284000 -22.291500 -0.000108 -0.000004 19.278100 5.457570 -4.918460 -2.192480 -6.469440 -0.000000 -174.327000 -14.643200 -16.072400 39.081100 -0.000007 -0.000012 -0.387339 0.220667 60.330800 40.985400 -0.000006 -0.000013 2.714180 6.283840 -83.924400 11.754300 -0.000000 0.000003 -0.000361 -0.003035 -16.689900 -2.192510 6.469440 -0.000001 175.785000 13.361600 163.686000 -39.081100 -0.002282 -0.040193 0.078787 -0.042918 60.412700 -40.985400 0.000008 0.000006 7.242890 6.880030 -84.226800 -11.754300 -0.000006 -0.000006 -0.625560 -0.771525 -16.497300
0.000000 0.000000 0.000000 0.000000 0.000000 -0.000000 0.470742 84.760200 -2.396730 90.146500 -4.743130 10.270200 15.735700 0.000005 -0.000001 88.470500 81.426700 -86.335900 8.984550 -0.406207 -0.000000 9.386260 -0.424892 4.300650 16.377300 -0.000001 -0.000001 -0.480814 -4.454170 1.647850 6.456720 -0.000001 -0.000000 -1.231700 -3.901370 1.449150 12.994200 -0.242716 4.980390 -91.421800 4.898770 -73.792000 5.348090 -0.000007 -0.000001 -61.067900 14.785000 -16.979700 24.328600 0.000019 0.000005 20.456800 15.298500 -54.731700 22.291600 -0.000001 0.000005 12.545800 5.434410 -4.094120 12.994500 -0.242716 -4.980390 88.264100 8.686070 -78.652600 -5.348130 -0.000001 -0.000004 -58.768000 28.770800 -9.843350 -24.328900 0.000322 -0.000009 2.060730 3.933520 -27.671700 -22.291500 -0.000108 -0.000004 20.220900 5.435860 -4.141050 -2.192480 -6.469440 -0.000000 -175.520000 -14.289700 -12.832900 39.081100 -0.000007 -0.000012 -0.357759 0.252848 54.749900 40.985400 -0.000006 -0.000013 2.491010 5.761580 -81.508800 11.754300 -0.000000 0.000003 -0.000330 -0.002815 -16.682100 -2.192510 6.469440 -0.000001 174.634000 13.071400 166.676000 -39.081100 -0.002282 -0.040193 0.066574 -0.043845 55.312100 -40.985400 0.000008 0.000006 6.697770 7.336660 -81.937600 -11.754300 -0.000006 -0.000006 -0.469350 -0.575786 -16.613900
0.000000 0.000000 0.000000 0.000000 0.000000 -0.000000 0.768292 87.047500 -2.058390 90.803600 -4.244820 9.871640 15.735700 0.000005 -0.000001 88.568900 82.219100 -85.846200 8.984550 -0.406207 -0.000000 7.806100 -0.385967 5.466240 16.377300 -0.000001 -0.000001 1.838210 -5.550920 1.737360 6.456720 -0.000001 -0.000000 0.150468 -5.125930 0.281100 12.994200 -0.242716 4.980390 -90.957900 3.218030 -73.413800 5.348090 -0.000007 -0.000001 -53.932700 4.653070 -27.539300 24.328600 0.000019 0.000005 17.023700 9.767380 -61.028900 22.291600 -0.000001 0.000005 14.058000 5.414690 -3.439700 12.994500 -0.242716 -4.980390 88.148300 8.383700 -77.497100 -5.348130 -0.000001 -0.000004 -59.367100 26.852700 -7.906800 -24.328900 0.000322 -0.000009 -0.010603 -0.020907 -25.388700 -22.291500 -0.000108 -0.000004 20.723900 5.443860 -4.421140 -2.192480 -6.469440 -0.000000 -176.568000 -14.251000 -9.189650 39.081100 -0.000007 -0.000012 -0.270073 0.253208 46.846600 40.985400 -0.000006 -0.000013 2.437950 6.137510 -77.778500 11.754300 -0.000000 0.000003 -0.000257 -0.002287 -16.663200 -2.192510 6.469440 -0.000001 173.847000 13.069100 170.157000 -39.081100 -0.002282 -0.040193 0.052620 -0.044513 47.958600 -40.985400 0.000008 0.000006 5.886720 7.537540 -78.407000 -11.754300 -0.000006 -0.000006 -0.277627 -0.340740 -16.782600
0.000000 0.000000 0.000000 0.000000 0.000000 -0.000000 0.942395 89.077000 -1.921070 91.212800 -3.324790 8.680470 15.735700 0.000005 -0.000001 86.854600 83.289300 -83.678600 8.984550 -0.406207 -0.000000 5.665430 -0.792611 6.384200 16.377300 -0.000001 -0.000001 4.057780 -6.833290 1.971550 6.456720 -0.000001 -0.000000 1.639520 -6.393050 -0.108268 12.994200 -0.242716 4.980390 -90.317100 1.097210 -73.889800 5.348090 -0.000007 -0.000001 -47.771200 -10.314100 -39.348800 24.328600 0.000019 0.000005 10.734300 5.029300 -65.190900 22.291600 -0.000001 0.000005 18.557900 5.401800 -2.998270 12.994500 -0.242716 -4.980390 88.096400 7.797560 -76.234800 -5.348130 -0.000001 -0.000004 -59.263400 26.401300 -5.969900 -24.328900 0.000322 -0.000009 0.285116 0.621874 -24.705900 -22.291500 -0.000108 -0.000004 19.740300 5.438190 -4.221990 -2.192480 -6.469440 -0.000000 -177.335000 -14.632900 -6.375290 39.081100 -0.000007 -0.000012 -0.158654 0.197668 38.752000 40.985400 -0.000006 -0.000013 2.524730 7.439180 -73.795600 11.754300 -0.000000 0.000003 -0.000142 -0.001389 -16.630400 -2.192510 6.469440 -0.000001 173.515000 13.830500 172.900000 -39.081100 -0.002282 -0.040193 0.041280 -0.044606 40.429800 -40.985400 0.000008 0.000006 5.296680 7.737600 -74.674300 -11.754300 -0.000006 -0.000006 -0.000941 -0.014566 -17.165600
